<svg width="174" height="36" viewBox="0 0 174 36" fill="none" xmlns="http://www.w3.org/2000/svg">
<path d="M24.658 9.87958L23.5957 9.25724L15.6089 4.58975C15.4297 4.48603 15.2377 4.39527 15.0457 4.31748C14.2521 4.10355 13.4138 4.69995 13.4138 5.59456V10.0027C13.4138 10.3658 13.2666 10.6964 13.0298 10.9362C12.9722 10.9946 12.9082 11.0529 12.8378 11.0983C12.697 11.1956 12.5434 11.2604 12.3706 11.2993C12.2874 11.3187 12.1978 11.3252 12.1082 11.3252H2.1695C1.99031 11.3252 1.82391 11.3447 1.65752 11.3835C1.54873 11.4095 1.43993 11.4484 1.33754 11.4873C1.28634 11.5067 1.23514 11.5326 1.19034 11.5586C1.04315 11.6364 0.902357 11.7271 0.780763 11.8308C0.652769 11.9346 0.543974 12.0577 0.441579 12.1874C0.307186 12.3624 0.20479 12.5634 0.127994 12.7708C0.0447979 13.1144 0 13.4645 0 13.8275V24.297C0 25.8657 0.825561 27.3179 2.1695 28.1023L5.36935 29.9757L11.2443 33.4115C12.5882 34.1959 14.2393 34.1959 15.5833 33.4115L21.4582 29.9757L24.658 28.1023C26.002 27.3179 26.8275 25.8657 26.8275 24.297V13.6914C26.8275 12.1161 25.9956 10.664 24.658 9.87958Z" fill="url(#paint0_linear)"/>
<path d="M20.8632 22.4173C20.3192 23.9407 19.34 25.2502 18.0281 26.1967C16.6906 27.1626 15.1098 27.6747 13.4587 27.6747C11.8076 27.6747 10.2269 27.1626 8.88932 26.1967C7.57738 25.2502 6.59823 23.9407 6.05426 22.4173C5.83667 21.8079 6.15025 21.1272 6.75182 20.9068C7.35339 20.6864 8.02536 21.0041 8.24295 21.6134C9.03651 23.8305 11.1292 25.315 13.4587 25.315C15.7882 25.315 17.8809 23.824 18.6745 21.6134C18.892 21.0041 19.5576 20.6864 20.1656 20.9068C20.7672 21.1272 21.0807 21.8079 20.8632 22.4173Z" fill="white"/>
<path d="M0.783471 11.8657C0.911959 11.7615 1.04687 11.6639 1.19463 11.5922C1.24603 11.5662 1.29742 11.5467 1.34239 11.5206C1.44518 11.475 1.5544 11.4425 1.66361 11.4164C1.83065 11.3774 1.99768 11.3578 2.17757 11.3578H12.1547C12.2446 11.3578 12.3346 11.3513 12.4181 11.3318C12.5851 11.2992 12.7457 11.2276 12.8871 11.1299C12.9577 11.0844 13.022 11.0258 13.0798 10.9672C13.3175 10.7262 13.4653 10.3942 13.4653 10.0295V5.60179C13.4653 4.70323 14.3068 4.10418 15.1035 4.31906C14.5767 4.10418 14.0177 4 13.4653 4C12.7072 4.00651 11.9491 4.20836 11.2745 4.61207L2.14545 10.0686C1.59937 10.3942 1.13681 10.8369 0.783471 11.3513C0.475099 11.7941 0.25667 12.289 0.128181 12.8164C0.205274 12.6015 0.308065 12.4062 0.442977 12.2304C0.539344 12.0936 0.654983 11.9699 0.783471 11.8657Z" fill="url(#paint1_linear)"/>
<path d="M1.65736 11.3838C1.54856 11.4097 1.43977 11.4486 1.33737 11.4875C1.43977 11.4421 1.54856 11.4097 1.65736 11.3838Z" fill="url(#paint2_linear)"/>
<path d="M1.65736 11.3838C1.54856 11.4097 1.43977 11.4486 1.33737 11.4875C1.43977 11.4421 1.54856 11.4097 1.65736 11.3838Z" fill="url(#paint3_linear)"/>
<path d="M13.0298 10.9362C12.9722 10.9946 12.9082 11.0529 12.8378 11.0983C12.9082 11.0464 12.9722 10.9946 13.0298 10.9362Z" fill="url(#paint4_linear)"/>
<path d="M13.0298 10.9362C12.9722 10.9946 12.9082 11.0529 12.8378 11.0983C12.9082 11.0464 12.9722 10.9946 13.0298 10.9362Z" fill="url(#paint5_linear)"/>
<path d="M1.19048 11.5588C1.04329 11.6366 0.902493 11.7273 0.780899 11.831C0.902493 11.7273 1.04329 11.6301 1.19048 11.5588Z" fill="url(#paint6_linear)"/>
<path d="M1.19048 11.5588C1.04329 11.6366 0.902493 11.7273 0.780899 11.831C0.902493 11.7273 1.04329 11.6301 1.19048 11.5588Z" fill="url(#paint7_linear)"/>
<path d="M0.441414 12.1874C0.537409 12.0578 0.652604 11.9346 0.780598 11.8309C0.652604 11.9346 0.537409 12.0578 0.441414 12.1874Z" fill="url(#paint8_linear)"/>
<path d="M0.441414 12.1874C0.537409 12.0578 0.652604 11.9346 0.780598 11.8309C0.652604 11.9346 0.537409 12.0578 0.441414 12.1874Z" fill="url(#paint9_linear)"/>
<path d="M42.64 13H46.9L41.2 28H36.79L31.09 13H35.35L38.98 23.5L42.64 13ZM60.9602 26.14C59.4202 27.66 57.5402 28.42 55.3202 28.42C53.1002 28.42 51.2202 27.66 49.6802 26.14C48.1602 24.6 47.4002 22.72 47.4002 20.5C47.4002 18.28 48.1602 16.41 49.6802 14.89C51.2202 13.35 53.1002 12.58 55.3202 12.58C57.5402 12.58 59.4202 13.35 60.9602 14.89C62.5002 16.41 63.2702 18.28 63.2702 20.5C63.2702 22.72 62.5002 24.6 60.9602 26.14ZM52.4102 23.47C53.1902 24.25 54.1602 24.64 55.3202 24.64C56.4802 24.64 57.4502 24.25 58.2302 23.47C59.0102 22.69 59.4002 21.7 59.4002 20.5C59.4002 19.3 59.0102 18.31 58.2302 17.53C57.4502 16.75 56.4802 16.36 55.3202 16.36C54.1602 16.36 53.1902 16.75 52.4102 17.53C51.6502 18.31 51.2702 19.3 51.2702 20.5C51.2702 21.7 51.6502 22.69 52.4102 23.47ZM67.9127 11.2C67.2727 11.2 66.7127 10.97 66.2327 10.51C65.7727 10.03 65.5427 9.47 65.5427 8.83C65.5427 8.19 65.7727 7.63 66.2327 7.15C66.7127 6.67 67.2727 6.43 67.9127 6.43C68.5727 6.43 69.1327 6.67 69.5927 7.15C70.0727 7.63 70.3127 8.19 70.3127 8.83C70.3127 9.47 70.0727 10.03 69.5927 10.51C69.1327 10.97 68.5727 11.2 67.9127 11.2ZM65.9927 28V13H69.8627V28H65.9927ZM80.5448 28.42C78.2848 28.42 76.3948 27.66 74.8748 26.14C73.3748 24.62 72.6248 22.74 72.6248 20.5C72.6248 18.26 73.3748 16.38 74.8748 14.86C76.3948 13.34 78.2848 12.58 80.5448 12.58C82.0048 12.58 83.3348 12.93 84.5348 13.63C85.7348 14.33 86.6448 15.27 87.2648 16.45L83.9348 18.4C83.6348 17.78 83.1748 17.29 82.5548 16.93C81.9548 16.57 81.2748 16.39 80.5148 16.39C79.3548 16.39 78.3948 16.78 77.6348 17.56C76.8748 18.32 76.4948 19.3 76.4948 20.5C76.4948 21.68 76.8748 22.66 77.6348 23.44C78.3948 24.2 79.3548 24.58 80.5148 24.58C81.2948 24.58 81.9848 24.41 82.5848 24.07C83.2048 23.71 83.6648 23.22 83.9648 22.6L87.3248 24.52C86.6648 25.7 85.7348 26.65 84.5348 27.37C83.3348 28.07 82.0048 28.42 80.5448 28.42ZM92.4072 22.09C92.9272 23.97 94.3372 24.91 96.6372 24.91C98.1172 24.91 99.2372 24.41 99.9972 23.41L103.117 25.21C101.637 27.35 99.4572 28.42 96.5772 28.42C94.0972 28.42 92.1072 27.67 90.6072 26.17C89.1072 24.67 88.3572 22.78 88.3572 20.5C88.3572 18.24 89.0972 16.36 90.5772 14.86C92.0572 13.34 93.9572 12.58 96.2772 12.58C98.4772 12.58 100.287 13.34 101.707 14.86C103.147 16.38 103.867 18.26 103.867 20.5C103.867 21 103.817 21.53 103.717 22.09H92.4072ZM92.3472 19.09H99.9972C99.7772 18.07 99.3172 17.31 98.6172 16.81C97.9372 16.31 97.1572 16.06 96.2772 16.06C95.2372 16.06 94.3772 16.33 93.6972 16.87C93.0172 17.39 92.5672 18.13 92.3472 19.09ZM109.553 17.26C109.553 17.66 109.813 17.99 110.333 18.25C110.873 18.49 111.523 18.71 112.283 18.91C113.043 19.09 113.803 19.33 114.563 19.63C115.323 19.91 115.963 20.39 116.483 21.07C117.023 21.75 117.293 22.6 117.293 23.62C117.293 25.16 116.713 26.35 115.553 27.19C114.413 28.01 112.983 28.42 111.263 28.42C108.183 28.42 106.083 27.23 104.963 24.85L108.323 22.96C108.763 24.26 109.743 24.91 111.263 24.91C112.643 24.91 113.333 24.48 113.333 23.62C113.333 23.22 113.063 22.9 112.523 22.66C112.003 22.4 111.363 22.17 110.603 21.97C109.843 21.77 109.083 21.52 108.323 21.22C107.563 20.92 106.913 20.45 106.373 19.81C105.853 19.15 105.593 18.33 105.593 17.35C105.593 15.87 106.133 14.71 107.213 13.87C108.313 13.01 109.673 12.58 111.293 12.58C112.513 12.58 113.623 12.86 114.623 13.42C115.623 13.96 116.413 14.74 116.993 15.76L113.693 17.56C113.213 16.54 112.413 16.03 111.293 16.03C110.793 16.03 110.373 16.14 110.033 16.36C109.713 16.58 109.553 16.88 109.553 17.26ZM127.922 16.72H124.532V22.96C124.532 23.48 124.662 23.86 124.922 24.1C125.182 24.34 125.562 24.48 126.062 24.52C126.562 24.54 127.182 24.53 127.922 24.49V28C125.262 28.3 123.382 28.05 122.282 27.25C121.202 26.45 120.662 25.02 120.662 22.96V16.72H118.052V13H120.662V9.97L124.532 8.8V13H127.922V16.72ZM142.962 26.14C141.422 27.66 139.542 28.42 137.322 28.42C135.102 28.42 133.222 27.66 131.682 26.14C130.162 24.6 129.402 22.72 129.402 20.5C129.402 18.28 130.162 16.41 131.682 14.89C133.222 13.35 135.102 12.58 137.322 12.58C139.542 12.58 141.422 13.35 142.962 14.89C144.502 16.41 145.272 18.28 145.272 20.5C145.272 22.72 144.502 24.6 142.962 26.14ZM134.412 23.47C135.192 24.25 136.162 24.64 137.322 24.64C138.482 24.64 139.452 24.25 140.232 23.47C141.012 22.69 141.402 21.7 141.402 20.5C141.402 19.3 141.012 18.31 140.232 17.53C139.452 16.75 138.482 16.36 137.322 16.36C136.162 16.36 135.192 16.75 134.412 17.53C133.652 18.31 133.272 19.3 133.272 20.5C133.272 21.7 133.652 22.69 134.412 23.47ZM151.865 15.58C152.225 14.62 152.815 13.9 153.635 13.42C154.475 12.94 155.405 12.7 156.425 12.7V17.02C155.245 16.88 154.185 17.12 153.245 17.74C152.325 18.36 151.865 19.39 151.865 20.83V28H147.995V13H151.865V15.58ZM168.79 13H172.93L167.47 28C166.69 30.16 165.65 31.72 164.35 32.68C163.07 33.66 161.47 34.1 159.55 34V30.4C160.59 30.42 161.41 30.2 162.01 29.74C162.63 29.28 163.12 28.54 163.48 27.52L157.33 13H161.56L165.46 23.08L168.79 13Z" fill="#69A9FF"/>
<defs>
<linearGradient id="paint0_linear" x1="7.27415" y1="7.89882" x2="21.6202" y2="29.0184" gradientUnits="userSpaceOnUse">
<stop stop-color="#4B8DFF"/>
<stop offset="1" stop-color="#86C6FE"/>
</linearGradient>
<linearGradient id="paint1_linear" x1="5.34772" y1="7.59043" x2="8.07934" y2="10.6157" gradientUnits="userSpaceOnUse">
<stop stop-color="#AFE0FA"/>
<stop offset="1" stop-color="#86C6FE"/>
</linearGradient>
<linearGradient id="paint2_linear" x1="1.30157" y1="11.405" x2="7.05833" y2="19.8798" gradientUnits="userSpaceOnUse">
<stop stop-color="#4E8FFF"/>
<stop offset="0.0595229" stop-color="#5798FF"/>
<stop offset="0.2291" stop-color="#6CACFE"/>
<stop offset="0.4194" stop-color="#7BBBFE"/>
<stop offset="0.6457" stop-color="#83C3FE"/>
<stop offset="1" stop-color="#86C6FE"/>
</linearGradient>
<linearGradient id="paint3_linear" x1="0.519516" y1="11.3216" x2="3.32056" y2="14.422" gradientUnits="userSpaceOnUse">
<stop stop-color="#B6E4F9"/>
<stop offset="0.6242" stop-color="#90CCFD"/>
<stop offset="0.7699" stop-color="#86C6FE"/>
</linearGradient>
<linearGradient id="paint4_linear" x1="9.38194" y1="7.28818" x2="21.3122" y2="24.8512" gradientUnits="userSpaceOnUse">
<stop stop-color="#4E8FFF"/>
<stop offset="0.0595229" stop-color="#5798FF"/>
<stop offset="0.2291" stop-color="#6CACFE"/>
<stop offset="0.4194" stop-color="#7BBBFE"/>
<stop offset="0.6457" stop-color="#83C3FE"/>
<stop offset="1" stop-color="#86C6FE"/>
</linearGradient>
<linearGradient id="paint5_linear" x1="7.09486" y1="6.40916" x2="11.7429" y2="11.5539" gradientUnits="userSpaceOnUse">
<stop stop-color="#B6E4F9"/>
<stop offset="0.6242" stop-color="#90CCFD"/>
<stop offset="0.7699" stop-color="#86C6FE"/>
</linearGradient>
<linearGradient id="paint6_linear" x1="0.828404" y1="11.5928" x2="10.0081" y2="25.1067" gradientUnits="userSpaceOnUse">
<stop stop-color="#4E8FFF"/>
<stop offset="0.0595229" stop-color="#5798FF"/>
<stop offset="0.2291" stop-color="#6CACFE"/>
<stop offset="0.4194" stop-color="#7BBBFE"/>
<stop offset="0.6457" stop-color="#83C3FE"/>
<stop offset="1" stop-color="#86C6FE"/>
</linearGradient>
<linearGradient id="paint7_linear" x1="0.105948" y1="11.2647" x2="3.93108" y2="15.4986" gradientUnits="userSpaceOnUse">
<stop stop-color="#B6E4F9"/>
<stop offset="0.6242" stop-color="#90CCFD"/>
<stop offset="0.7699" stop-color="#86C6FE"/>
</linearGradient>
<linearGradient id="paint8_linear" x1="0.438703" y1="11.7312" x2="15.2201" y2="33.4917" gradientUnits="userSpaceOnUse">
<stop stop-color="#4E8FFF"/>
<stop offset="0.0595229" stop-color="#5798FF"/>
<stop offset="0.2291" stop-color="#6CACFE"/>
<stop offset="0.4194" stop-color="#7BBBFE"/>
<stop offset="0.6457" stop-color="#83C3FE"/>
<stop offset="1" stop-color="#86C6FE"/>
</linearGradient>
<linearGradient id="paint9_linear" x1="-0.195916" y1="11.0244" x2="5.22812" y2="17.0281" gradientUnits="userSpaceOnUse">
<stop stop-color="#B6E4F9"/>
<stop offset="0.6242" stop-color="#90CCFD"/>
<stop offset="0.7699" stop-color="#86C6FE"/>
</linearGradient>
</defs>
</svg>
