<svg width="193" height="40" viewBox="0 0 193 40" fill="none" xmlns="http://www.w3.org/2000/svg">
<rect width="40" height="40" rx="10" fill="#69A9FF"/>
<path d="M32.8798 23.3113C31.9336 25.5392 30.2304 27.4543 27.9483 28.8384C25.6217 30.251 22.8721 31 20 31C17.1279 31 14.3783 30.251 12.0517 28.8384C9.76963 27.4543 8.06643 25.5392 7.1202 23.3113C6.74171 22.4202 7.28718 21.4247 8.3336 21.1024C9.38001 20.78 10.5489 21.2446 10.9274 22.1357C12.3077 25.3781 15.9479 27.5491 20 27.5491C24.0521 27.5491 27.6923 25.3686 29.0726 22.1357C29.4511 21.2446 30.6089 20.78 31.6664 21.1024C32.7128 21.4247 33.2583 22.4202 32.8798 23.3113Z" fill="white"/>
<path d="M61.64 13H65.9L60.2 28H55.79L50.09 13H54.35L57.98 23.5L61.64 13ZM79.9602 26.14C78.4202 27.66 76.5402 28.42 74.3202 28.42C72.1002 28.42 70.2202 27.66 68.6802 26.14C67.1602 24.6 66.4002 22.72 66.4002 20.5C66.4002 18.28 67.1602 16.41 68.6802 14.89C70.2202 13.35 72.1002 12.58 74.3202 12.58C76.5402 12.58 78.4202 13.35 79.9602 14.89C81.5002 16.41 82.2702 18.28 82.2702 20.5C82.2702 22.72 81.5002 24.6 79.9602 26.14ZM71.4102 23.47C72.1902 24.25 73.1602 24.64 74.3202 24.64C75.4802 24.64 76.4502 24.25 77.2302 23.47C78.0102 22.69 78.4002 21.7 78.4002 20.5C78.4002 19.3 78.0102 18.31 77.2302 17.53C76.4502 16.75 75.4802 16.36 74.3202 16.36C73.1602 16.36 72.1902 16.75 71.4102 17.53C70.6502 18.31 70.2702 19.3 70.2702 20.5C70.2702 21.7 70.6502 22.69 71.4102 23.47ZM86.9127 11.2C86.2727 11.2 85.7127 10.97 85.2327 10.51C84.7727 10.03 84.5427 9.47 84.5427 8.83C84.5427 8.19 84.7727 7.63 85.2327 7.15C85.7127 6.67 86.2727 6.43 86.9127 6.43C87.5727 6.43 88.1327 6.67 88.5927 7.15C89.0727 7.63 89.3127 8.19 89.3127 8.83C89.3127 9.47 89.0727 10.03 88.5927 10.51C88.1327 10.97 87.5727 11.2 86.9127 11.2ZM84.9927 28V13H88.8627V28H84.9927ZM99.5448 28.42C97.2848 28.42 95.3948 27.66 93.8748 26.14C92.3748 24.62 91.6248 22.74 91.6248 20.5C91.6248 18.26 92.3748 16.38 93.8748 14.86C95.3948 13.34 97.2848 12.58 99.5448 12.58C101.005 12.58 102.335 12.93 103.535 13.63C104.735 14.33 105.645 15.27 106.265 16.45L102.935 18.4C102.635 17.78 102.175 17.29 101.555 16.93C100.955 16.57 100.275 16.39 99.5148 16.39C98.3548 16.39 97.3948 16.78 96.6348 17.56C95.8748 18.32 95.4948 19.3 95.4948 20.5C95.4948 21.68 95.8748 22.66 96.6348 23.44C97.3948 24.2 98.3548 24.58 99.5148 24.58C100.295 24.58 100.985 24.41 101.585 24.07C102.205 23.71 102.665 23.22 102.965 22.6L106.325 24.52C105.665 25.7 104.735 26.65 103.535 27.37C102.335 28.07 101.005 28.42 99.5448 28.42ZM111.407 22.09C111.927 23.97 113.337 24.91 115.637 24.91C117.117 24.91 118.237 24.41 118.997 23.41L122.117 25.21C120.637 27.35 118.457 28.42 115.577 28.42C113.097 28.42 111.107 27.67 109.607 26.17C108.107 24.67 107.357 22.78 107.357 20.5C107.357 18.24 108.097 16.36 109.577 14.86C111.057 13.34 112.957 12.58 115.277 12.58C117.477 12.58 119.287 13.34 120.707 14.86C122.147 16.38 122.867 18.26 122.867 20.5C122.867 21 122.817 21.53 122.717 22.09H111.407ZM111.347 19.09H118.997C118.777 18.07 118.317 17.31 117.617 16.81C116.937 16.31 116.157 16.06 115.277 16.06C114.237 16.06 113.377 16.33 112.697 16.87C112.017 17.39 111.567 18.13 111.347 19.09ZM128.553 17.26C128.553 17.66 128.813 17.99 129.333 18.25C129.873 18.49 130.523 18.71 131.283 18.91C132.043 19.09 132.803 19.33 133.563 19.63C134.323 19.91 134.963 20.39 135.483 21.07C136.023 21.75 136.293 22.6 136.293 23.62C136.293 25.16 135.713 26.35 134.553 27.19C133.413 28.01 131.983 28.42 130.263 28.42C127.183 28.42 125.083 27.23 123.963 24.85L127.323 22.96C127.763 24.26 128.743 24.91 130.263 24.91C131.643 24.91 132.333 24.48 132.333 23.62C132.333 23.22 132.063 22.9 131.523 22.66C131.003 22.4 130.363 22.17 129.603 21.97C128.843 21.77 128.083 21.52 127.323 21.22C126.563 20.92 125.913 20.45 125.373 19.81C124.853 19.15 124.593 18.33 124.593 17.35C124.593 15.87 125.133 14.71 126.213 13.87C127.313 13.01 128.673 12.58 130.293 12.58C131.513 12.58 132.623 12.86 133.623 13.42C134.623 13.96 135.413 14.74 135.993 15.76L132.693 17.56C132.213 16.54 131.413 16.03 130.293 16.03C129.793 16.03 129.373 16.14 129.033 16.36C128.713 16.58 128.553 16.88 128.553 17.26ZM146.922 16.72H143.532V22.96C143.532 23.48 143.662 23.86 143.922 24.1C144.182 24.34 144.562 24.48 145.062 24.52C145.562 24.54 146.182 24.53 146.922 24.49V28C144.262 28.3 142.382 28.05 141.282 27.25C140.202 26.45 139.662 25.02 139.662 22.96V16.72H137.052V13H139.662V9.97L143.532 8.8V13H146.922V16.72ZM161.962 26.14C160.422 27.66 158.542 28.42 156.322 28.42C154.102 28.42 152.222 27.66 150.682 26.14C149.162 24.6 148.402 22.72 148.402 20.5C148.402 18.28 149.162 16.41 150.682 14.89C152.222 13.35 154.102 12.58 156.322 12.58C158.542 12.58 160.422 13.35 161.962 14.89C163.502 16.41 164.272 18.28 164.272 20.5C164.272 22.72 163.502 24.6 161.962 26.14ZM153.412 23.47C154.192 24.25 155.162 24.64 156.322 24.64C157.482 24.64 158.452 24.25 159.232 23.47C160.012 22.69 160.402 21.7 160.402 20.5C160.402 19.3 160.012 18.31 159.232 17.53C158.452 16.75 157.482 16.36 156.322 16.36C155.162 16.36 154.192 16.75 153.412 17.53C152.652 18.31 152.272 19.3 152.272 20.5C152.272 21.7 152.652 22.69 153.412 23.47ZM170.865 15.58C171.225 14.62 171.815 13.9 172.635 13.42C173.475 12.94 174.405 12.7 175.425 12.7V17.02C174.245 16.88 173.185 17.12 172.245 17.74C171.325 18.36 170.865 19.39 170.865 20.83V28H166.995V13H170.865V15.58ZM187.79 13H191.93L186.47 28C185.69 30.16 184.65 31.72 183.35 32.68C182.07 33.66 180.47 34.1 178.55 34V30.4C179.59 30.42 180.41 30.2 181.01 29.74C181.63 29.28 182.12 28.54 182.48 27.52L176.33 13H180.56L184.46 23.08L187.79 13Z" fill="#1A1A1A"/>
</svg>
