<svg width="79" height="88" viewBox="0 0 79 88" fill="none" xmlns="http://www.w3.org/2000/svg">
<g filter="url(#filter0_d)">
<path d="M64.2288 12.8081L61.8924 11.4525L44.3275 1.28506C43.9334 1.05912 43.5112 0.861422 43.089 0.691965C41.3437 0.225959 39.5 1.52513 39.5 3.47388V13.0764C39.5 13.8672 39.1763 14.5874 38.6555 15.1099C38.5289 15.237 38.3881 15.3641 38.2333 15.4629C37.9237 15.6748 37.5859 15.816 37.2059 15.9007C37.0229 15.9431 36.8259 15.9572 36.6288 15.9572H14.7712C14.3771 15.9572 14.0112 15.9996 13.6453 16.0843C13.406 16.1408 13.1667 16.2255 12.9416 16.3102C12.829 16.3526 12.7164 16.4091 12.6178 16.4656C12.2941 16.635 11.9845 16.8327 11.7171 17.0587C11.4356 17.2846 11.1963 17.5529 10.9711 17.8353C10.6756 18.2166 10.4504 18.6544 10.2815 19.1063C10.0985 19.8547 10 20.6173 10 21.4081V44.2141C10 47.6315 11.8156 50.7947 14.7712 52.5034L21.8084 56.5845L34.7288 64.0688C37.6844 65.7775 41.3156 65.7775 44.2712 64.0688L57.1916 56.5845L64.2288 52.5034C67.1844 50.7947 69 47.6315 69 44.2141V21.1115C69 17.68 67.1703 14.5168 64.2288 12.8081ZM55.8826 40.1189C54.6863 43.4374 52.5329 46.29 49.6477 48.3517C46.7061 50.4558 43.2297 51.5714 39.5985 51.5714C35.9673 51.5714 32.4909 50.4558 29.5494 48.3517C26.6641 46.29 24.5107 43.4374 23.3144 40.1189C22.8359 38.7915 23.5255 37.3087 24.8485 36.8286C26.1715 36.3485 27.6493 37.0404 28.1279 38.3679C29.8731 43.1974 34.4754 46.4312 39.5985 46.4312C44.7216 46.4312 49.3239 43.1833 51.0692 38.3679C51.5477 37.0404 53.0114 36.3485 54.3485 36.8286C55.6715 37.3087 56.3612 38.7915 55.8826 40.1189Z" fill="url(#paint0_linear)"/>
<path d="M11.7171 17.0587C11.9986 16.8327 12.2941 16.6209 12.6178 16.4656C12.7304 16.4091 12.843 16.3667 12.9416 16.3102C13.1668 16.2114 13.406 16.1408 13.6453 16.0843C14.0112 15.9995 14.3772 15.9572 14.7712 15.9572H36.6288C36.8259 15.9572 37.0229 15.9431 37.2059 15.9007C37.5718 15.8301 37.9237 15.6748 38.2333 15.4629C38.3881 15.3641 38.5289 15.237 38.6555 15.1099C39.1763 14.5874 39.5 13.8672 39.5 13.0764V3.47387C39.5 1.52511 41.3438 0.225942 43.089 0.691949C41.9349 0.225942 40.7104 0 39.5 0C37.8392 0.0141214 36.1784 0.451885 34.7006 1.32741L14.7009 13.1611C13.5045 13.8672 12.4912 14.8275 11.7171 15.9431C11.0415 16.9033 10.563 17.9765 10.2815 19.1204C10.4504 18.6544 10.6756 18.2307 10.9711 17.8495C11.1823 17.5529 11.4356 17.2846 11.7171 17.0587Z" fill="url(#paint1_linear)"/>
<path d="M13.6452 16.0843C13.406 16.1408 13.1667 16.2255 12.9415 16.3102C13.1667 16.2114 13.406 16.1408 13.6452 16.0843Z" fill="url(#paint2_linear)"/>
<path d="M13.6452 16.0843C13.406 16.1408 13.1667 16.2255 12.9415 16.3102C13.1667 16.2114 13.406 16.1408 13.6452 16.0843Z" fill="url(#paint3_linear)"/>
<path d="M38.6556 15.1099C38.5289 15.237 38.3882 15.3641 38.2333 15.4629C38.3882 15.35 38.5289 15.237 38.6556 15.1099Z" fill="url(#paint4_linear)"/>
<path d="M38.6556 15.1099C38.5289 15.237 38.3882 15.3641 38.2333 15.4629C38.3882 15.35 38.5289 15.237 38.6556 15.1099Z" fill="url(#paint5_linear)"/>
<path d="M12.6178 16.4655C12.2941 16.635 11.9845 16.8327 11.717 17.0586C11.9845 16.8327 12.2941 16.6209 12.6178 16.4655Z" fill="url(#paint6_linear)"/>
<path d="M12.6178 16.4655C12.2941 16.635 11.9845 16.8327 11.717 17.0586C11.9845 16.8327 12.2941 16.6209 12.6178 16.4655Z" fill="url(#paint7_linear)"/>
<path d="M10.9711 17.8354C11.1822 17.5529 11.4356 17.2846 11.7171 17.0587C11.4356 17.2846 11.1822 17.5529 10.9711 17.8354Z" fill="url(#paint8_linear)"/>
<path d="M10.9711 17.8354C11.1822 17.5529 11.4356 17.2846 11.7171 17.0587C11.4356 17.2846 11.1822 17.5529 10.9711 17.8354Z" fill="url(#paint9_linear)"/>
<path d="M55.8474 39.967C54.6465 43.3089 52.4847 46.1814 49.5882 48.2577C46.6352 50.3766 43.1453 51.5 39.5 51.5C35.8547 51.5 32.3648 50.3766 29.4118 48.2577C26.5153 46.1814 24.3535 43.3089 23.1526 39.967C22.6722 38.6302 23.3645 37.1371 24.6926 36.6536C26.0208 36.17 27.5043 36.8669 27.9847 38.2036C29.7368 43.0671 34.357 46.3236 39.5 46.3236C44.643 46.3236 49.2632 43.0529 51.0153 38.2036C51.4957 36.8669 52.9651 36.17 54.3074 36.6536C55.6355 37.1371 56.3278 38.6302 55.8474 39.967Z" fill="white"/>
</g>
<defs>
<filter id="filter0_d" x="0" y="0" width="79" height="87.3503" filterUnits="userSpaceOnUse" color-interpolation-filters="sRGB">
<feFlood flood-opacity="0" result="BackgroundImageFix"/>
<feColorMatrix in="SourceAlpha" type="matrix" values="0 0 0 0 0 0 0 0 0 0 0 0 0 0 0 0 0 0 127 0"/>
<feOffset dy="12"/>
<feGaussianBlur stdDeviation="5"/>
<feColorMatrix type="matrix" values="0 0 0 0 0.0509804 0 0 0 0 0.172549 0 0 0 0 0.372549 0 0 0 0.08 0"/>
<feBlend mode="normal" in2="BackgroundImageFix" result="effect1_dropShadow"/>
<feBlend mode="normal" in="SourceGraphic" in2="effect1_dropShadow" result="shape"/>
</filter>
<linearGradient id="paint0_linear" x1="23.3438" y1="8.49335" x2="56.1554" y2="57.2601" gradientUnits="userSpaceOnUse">
<stop stop-color="#4E8FFF"/>
<stop offset="0.0595229" stop-color="#5798FF"/>
<stop offset="0.2291" stop-color="#6CACFE"/>
<stop offset="0.4194" stop-color="#7BBBFE"/>
<stop offset="0.6457" stop-color="#83C3FE"/>
<stop offset="1" stop-color="#86C6FE"/>
</linearGradient>
<linearGradient id="paint1_linear" x1="21.7163" y1="4.30987" x2="33.9055" y2="17.931" gradientUnits="userSpaceOnUse">
<stop stop-color="#B6E4F9"/>
<stop offset="0.6242" stop-color="#90CCFD"/>
<stop offset="0.7699" stop-color="#86C6FE"/>
</linearGradient>
<linearGradient id="paint2_linear" x1="12.8628" y1="15.5452" x2="45.6738" y2="64.3118" gradientUnits="userSpaceOnUse">
<stop stop-color="#4E8FFF"/>
<stop offset="0.0595229" stop-color="#5798FF"/>
<stop offset="0.2291" stop-color="#6CACFE"/>
<stop offset="0.4194" stop-color="#7BBBFE"/>
<stop offset="0.6457" stop-color="#83C3FE"/>
<stop offset="1" stop-color="#86C6FE"/>
</linearGradient>
<linearGradient id="paint3_linear" x1="11.1429" y1="13.7717" x2="23.3318" y2="27.3929" gradientUnits="userSpaceOnUse">
<stop stop-color="#B6E4F9"/>
<stop offset="0.6242" stop-color="#90CCFD"/>
<stop offset="0.7699" stop-color="#86C6FE"/>
</linearGradient>
<linearGradient id="paint4_linear" x1="30.6331" y1="3.58897" x2="63.4447" y2="52.3555" gradientUnits="userSpaceOnUse">
<stop stop-color="#4E8FFF"/>
<stop offset="0.0595229" stop-color="#5798FF"/>
<stop offset="0.2291" stop-color="#6CACFE"/>
<stop offset="0.4194" stop-color="#7BBBFE"/>
<stop offset="0.6457" stop-color="#83C3FE"/>
<stop offset="1" stop-color="#86C6FE"/>
</linearGradient>
<linearGradient id="paint5_linear" x1="25.6033" y1="0.831657" x2="37.7924" y2="14.4527" gradientUnits="userSpaceOnUse">
<stop stop-color="#B6E4F9"/>
<stop offset="0.6242" stop-color="#90CCFD"/>
<stop offset="0.7699" stop-color="#86C6FE"/>
</linearGradient>
<linearGradient id="paint6_linear" x1="11.8215" y1="16.2458" x2="44.6331" y2="65.0126" gradientUnits="userSpaceOnUse">
<stop stop-color="#4E8FFF"/>
<stop offset="0.0595229" stop-color="#5798FF"/>
<stop offset="0.2291" stop-color="#6CACFE"/>
<stop offset="0.4194" stop-color="#7BBBFE"/>
<stop offset="0.6457" stop-color="#83C3FE"/>
<stop offset="1" stop-color="#86C6FE"/>
</linearGradient>
<linearGradient id="paint7_linear" x1="10.2327" y1="14.5862" x2="22.4218" y2="28.2073" gradientUnits="userSpaceOnUse">
<stop stop-color="#B6E4F9"/>
<stop offset="0.6242" stop-color="#90CCFD"/>
<stop offset="0.7699" stop-color="#86C6FE"/>
</linearGradient>
<linearGradient id="paint8_linear" x1="10.936" y1="16.8416" x2="43.7477" y2="65.6084" gradientUnits="userSpaceOnUse">
<stop stop-color="#4E8FFF"/>
<stop offset="0.0595229" stop-color="#5798FF"/>
<stop offset="0.2291" stop-color="#6CACFE"/>
<stop offset="0.4194" stop-color="#7BBBFE"/>
<stop offset="0.6457" stop-color="#83C3FE"/>
<stop offset="1" stop-color="#86C6FE"/>
</linearGradient>
<linearGradient id="paint9_linear" x1="9.43303" y1="15.3018" x2="21.6222" y2="28.923" gradientUnits="userSpaceOnUse">
<stop stop-color="#B6E4F9"/>
<stop offset="0.6242" stop-color="#90CCFD"/>
<stop offset="0.7699" stop-color="#86C6FE"/>
</linearGradient>
</defs>
</svg>
